ffmpeg version 3.4.8-0ubuntu0.2 Copyright (c) 2000-2020 the FFmpeg developers
  built with gcc 7 (Ubuntu 7.5.0-3ubuntu1~18.04)
  configuration: --prefix=/usr --extra-version=0ubuntu0.2 --toolchain=hardened --libdir=/usr/lib/x86_64-linux-gnu --incdir=/usr/include/x86_64-linux-gnu --enable-gpl --disable-stripping --enable-avresample --enable-avisynth --enable-gnutls --enable-ladspa --enable-libass --enable-libbluray --enable-libbs2b --enable-libcaca --enable-libcdio --enable-libflite --enable-libfontconfig --enable-libfreetype --enable-libfribidi --enable-libgme --enable-libgsm --enable-libmp3lame --enable-libmysofa --enable-libopenjpeg --enable-libopenmpt --enable-libopus --enable-libpulse --enable-librubberband --enable-librsvg --enable-libshine --enable-libsnappy --enable-libsoxr --enable-libspeex --enable-libssh --enable-libtheora --enable-libtwolame --enable-libvorbis --enable-libvpx --enable-libwavpack --enable-libwebp --enable-libx265 --enable-libxml2 --enable-libxvid --enable-libzmq --enable-libzvbi --enable-omx --enable-openal --enable-opengl --enable-sdl2 --enable-libdc1394 --enable-libdrm --enable-libiec61883 --enable-chromaprint --enable-frei0r --enable-libopencv --enable-libx264 --enable-shared
  libavutil      55. 78.100 / 55. 78.100
  libavcodec     57.107.100 / 57.107.100
  libavformat    57. 83.100 / 57. 83.100
  libavdevice    57. 10.100 / 57. 10.100
  libavfilter     6.107.100 /  6.107.100
  libavresample   3.  7.  0 /  3.  7.  0
  libswscale      4.  8.100 /  4.  8.100
  libswresample   2.  9.100 /  2.  9.100
  libpostproc    54.  7.100 / 54.  7.100
[rawvideo @ 0x56464a3f0a20] Estimating duration from bitrate, this may be inaccurate
Input #0, rawvideo, from '../../SVC-Encoder-20220109T061506Z-001/SVC-Encoder/Dataset/RollerCoaster/6f_2x2/tile_yuv/f4_t3_480x480.yuv':
  Duration: 00:00:10.00, start: 0.000000, bitrate: 82944 kb/s
    Stream #0:0: Video: rawvideo (I420 / 0x30323449), yuv420p, 480x480, 82944 kb/s, 30 tbr, 30 tbn, 30 tbc
Stream mapping:
  Stream #0:0 -> #0:0 (rawvideo (native) -> h264 (libx264))
Press [q] to stop, [?] for help
[libx264 @ 0x56464a3fdc60] using cpu capabilities: MMX2 SSE2Fast LZCNT SSSE3 SSE4.2 AVX
[libx264 @ 0x56464a3fdc60] profile High, level 3.0
Output #0, rawvideo, to 'RollerCoaster_f4_t3_480x480_x264_QP_40.h264':
  Metadata:
    encoder         : Lavf57.83.100
    Stream #0:0: Video: h264 (libx264), yuv420p, 480x480, q=-1--1, 30 fps, 30 tbn, 30 tbc
    Metadata:
      encoder         : Lavc57.107.100 libx264
    Side data:
      cpb: bitrate max/min/avg: 0/0/0 buffer size: 0 vbv_delay: -1
frame=  126 fps=0.0 q=46.0 PSNR=Y:nan U:nan V:nan *:nan size=      28kB time=00:00:02.76 bitrate=  81.8kbits/s speed=5.53x    frame=  227 fps=226 q=46.0 PSNR=Y:nan U:nan V:nan *:nan size=      57kB time=00:00:06.13 bitrate=  76.8kbits/s speed=6.12x    frame=  300 fps=207 q=46.0 LPSNR=Y:inf U:inf V:inf *:inf size=      92kB time=00:00:09.93 bitrate=  76.0kbits/s speed=6.84x    
video:92kB audio:0kB subtitle:0kB other streams:0kB global headers:0kB muxing overhead: 0.000000%
[libx264 @ 0x56464a3fdc60] frame I:2     Avg QP:38.24  size:  6346  PSNR Mean Y:31.63 U:41.30 V:43.34 Avg:33.21 Global:33.16
[libx264 @ 0x56464a3fdc60] frame P:76    Avg QP:39.99  size:   732  PSNR Mean Y:30.28 U:41.17 V:42.82 Avg:31.89 Global:31.88
[libx264 @ 0x56464a3fdc60] frame B:222   Avg QP:45.56  size:   117  PSNR Mean Y:30.11 U:41.14 V:42.80 Avg:31.73 Global:31.71
[libx264 @ 0x56464a3fdc60] consecutive B-frames:  1.0%  0.7%  1.0% 97.3%
[libx264 @ 0x56464a3fdc60] mb I  I16..4: 24.7% 68.5%  6.8%
[libx264 @ 0x56464a3fdc60] mb P  I16..4:  0.4%  0.3%  0.0%  P16..4: 30.9%  2.6%  0.3%  0.0%  0.0%    skip:65.4%
[libx264 @ 0x56464a3fdc60] mb B  I16..4:  0.0%  0.0%  0.0%  B16..8: 11.5%  0.0%  0.0%  direct: 0.0%  skip:88.5%  L0:33.4% L1:66.6% BI: 0.0%
[libx264 @ 0x56464a3fdc60] 8x8 transform intra:62.6% inter:86.7%
[libx264 @ 0x56464a3fdc60] coded y,uvDC,uvAC intra: 41.5% 37.2% 1.1% inter: 1.2% 0.6% 0.0%
[libx264 @ 0x56464a3fdc60] i16 v,h,dc,p: 16% 36% 30% 18%
[libx264 @ 0x56464a3fdc60] i8 v,h,dc,ddl,ddr,vr,hd,vl,hu:  8%  8% 31%  7%  7%  3%  8% 23%  5%
[libx264 @ 0x56464a3fdc60] i4 v,h,dc,ddl,ddr,vr,hd,vl,hu:  9% 13% 21% 11% 12%  5% 12% 12%  5%
[libx264 @ 0x56464a3fdc60] i8c dc,h,v,p: 77%  9% 10%  4%
[libx264 @ 0x56464a3fdc60] Weighted P-Frames: Y:1.3% UV:0.0%
[libx264 @ 0x56464a3fdc60] ref P L0: 66.0% 12.5% 16.4%  5.0%  0.1%
[libx264 @ 0x56464a3fdc60] ref B L0: 85.7% 12.7%  1.6%
[libx264 @ 0x56464a3fdc60] ref B L1: 85.6% 14.4%
[libx264 @ 0x56464a3fdc60] PSNR Mean Y:30.162 U:41.151 V:42.808 Avg:31.779 Global:31.764 kb/s:75.53
